<?xml version="1.0" encoding="utf-8"?>
<!-- Generator: Adobe Illustrator 21.0.0, SVG Export Plug-In . SVG Version: 6.00 Build 0)  -->
<svg version="1.1" id="Layer_1" xmlns="http://www.w3.org/2000/svg" xmlns:xlink="http://www.w3.org/1999/xlink" x="0px" y="0px"
	 viewBox="0 0 303.8 60.5" style="enable-background:new 0 0 303.8 60.5;" xml:space="preserve">
<style type="text/css">
	.st0{fill:#2B8FC0;}
	.st1{enable-background:new    ;}
	.st2{fill:#2B91C1;}
</style>
<title>wittykiosk-logo</title>
<g>
	<path class="st0" d="M1.4,40.9c-0.8,0-1.4-0.6-1.4-1.4V1.4C0,0.6,0.6,0,1.4,0s1.4,0.6,1.4,1.4v38.1C2.8,40.3,2.2,40.9,1.4,40.9z"/>
</g>
<g>
	<path class="st0" d="M53.1,42.9c-0.7,0-1.3-0.6-1.3-1.4l0-40.1c0-0.8,0.6-1.4,1.3-1.4c0,0,0,0,0,0c0.7,0,1.3,0.6,1.3,1.4l0,40.1
		C54.5,42.3,53.9,42.9,53.1,42.9C53.1,42.9,53.1,42.9,53.1,42.9z"/>
</g>
<g>
	<path class="st0" d="M27.3,58.3C12,58.3,0,52.3,0,44.8V25.5C0,16.8,12,9.9,27.3,9.9s27.3,6.8,27.3,15.6l0,19.2
		C54.6,52.3,42.6,58.3,27.3,58.3z M27.3,12.8C14,12.8,2.8,18.6,2.8,25.5v19.3c0,5.1,9.8,10.7,24.4,10.7c13.3,0,24.4-4.9,24.4-10.7
		l0-19.2C51.8,18.6,40.6,12.8,27.3,12.8z"/>
</g>
<g class="st1">
	<path class="st2" d="M106.2,13.3c0.3,0.3,0.4,0.7,0.4,1.2c0,0.2,0,0.5-0.1,0.9L97.1,47c-0.2,0.5-0.4,0.9-0.7,1.1
		c-0.3,0.3-0.7,0.4-1.1,0.4c-0.4,0-0.8-0.1-1.1-0.4c-0.3-0.3-0.5-0.6-0.7-1.1l-7.4-27l-7.4,27c-0.2,0.5-0.4,0.8-0.7,1.1
		s-0.7,0.4-1.1,0.4c-0.4,0-0.8-0.1-1.1-0.4s-0.5-0.6-0.7-1.1l-9.4-31.7c-0.1-0.3-0.1-0.6-0.1-0.8c0-0.5,0.2-0.9,0.5-1.3
		c0.3-0.3,0.7-0.5,1.2-0.5c0.9,0,1.4,0.5,1.7,1.4l7.9,27.6L84.4,15c0.1-0.3,0.3-0.6,0.6-0.8c0.3-0.2,0.7-0.3,1.1-0.3
		c0.4,0,0.7,0.1,1.1,0.3c0.3,0.2,0.5,0.5,0.6,0.9l7.5,26.8l8-27.8c0.2-0.8,0.8-1.2,1.7-1.2C105.5,12.8,105.9,13,106.2,13.3z"/>
	<path class="st2" d="M112.4,18c-0.5-0.5-0.7-1.1-0.7-1.8c0-0.7,0.2-1.3,0.7-1.8c0.5-0.5,1.1-0.7,1.8-0.7c0.7,0,1.3,0.2,1.7,0.7
		c0.5,0.5,0.7,1.1,0.7,1.8c0,0.7-0.2,1.3-0.7,1.8c-0.5,0.5-1.1,0.7-1.8,0.7C113.5,18.8,112.9,18.5,112.4,18z M112.9,48
		c-0.3-0.3-0.5-0.8-0.5-1.3V25.3c0-0.5,0.2-0.9,0.5-1.3c0.3-0.3,0.8-0.5,1.3-0.5s0.9,0.2,1.3,0.5c0.3,0.3,0.5,0.8,0.5,1.3v21.5
		c0,0.5-0.2,0.9-0.5,1.3c-0.3,0.3-0.7,0.5-1.3,0.5S113.3,48.4,112.9,48z"/>
	<path class="st2" d="M137.1,45.5c0.3,0.3,0.5,0.8,0.5,1.3c0,0.5-0.2,0.9-0.5,1.2c-0.4,0.3-0.8,0.5-1.4,0.5h-1
		c-1.6,0-3.1-0.4-4.3-1.2c-1.3-0.8-2.3-1.8-3-3.2c-0.7-1.3-1.1-2.8-1.1-4.5V27.5h-3c-0.5,0-0.9-0.1-1.2-0.4
		c-0.3-0.3-0.4-0.6-0.4-1.1c0-0.5,0.1-0.8,0.4-1.1c0.3-0.3,0.7-0.4,1.2-0.4h3v-7.1c0-0.5,0.2-0.9,0.5-1.3c0.3-0.3,0.7-0.5,1.3-0.5
		s0.9,0.2,1.3,0.5c0.3,0.3,0.5,0.8,0.5,1.3v7.1h5.2c0.5,0,0.9,0.1,1.2,0.4c0.3,0.3,0.4,0.7,0.4,1.1c0,0.4-0.1,0.8-0.4,1.1
		c-0.3,0.3-0.7,0.4-1.2,0.4h-5.2v12.2c0,1.6,0.5,2.8,1.4,3.8c0.9,1,2.1,1.5,3.5,1.5h1.2C136.4,45,136.8,45.2,137.1,45.5z"/>
	<path class="st2" d="M155.5,45.5c0.3,0.3,0.5,0.8,0.5,1.3c0,0.5-0.2,0.9-0.5,1.2c-0.4,0.3-0.8,0.5-1.4,0.5h-1
		c-1.6,0-3.1-0.4-4.3-1.2c-1.3-0.8-2.3-1.8-3-3.2c-0.7-1.3-1.1-2.8-1.1-4.5V27.5h-3c-0.5,0-0.9-0.1-1.2-0.4
		c-0.3-0.3-0.4-0.6-0.4-1.1c0-0.5,0.1-0.8,0.4-1.1c0.3-0.3,0.7-0.4,1.2-0.4h3v-7.1c0-0.5,0.2-0.9,0.5-1.3c0.3-0.3,0.7-0.5,1.3-0.5
		c0.5,0,0.9,0.2,1.3,0.5c0.3,0.3,0.5,0.8,0.5,1.3v7.1h5.2c0.5,0,0.9,0.1,1.2,0.4c0.3,0.3,0.4,0.7,0.4,1.1c0,0.4-0.1,0.8-0.4,1.1
		s-0.7,0.4-1.2,0.4h-5.2v12.2c0,1.6,0.5,2.8,1.4,3.8c0.9,1,2.1,1.5,3.5,1.5h1.2C154.8,45,155.2,45.2,155.5,45.5z"/>
	<path class="st2" d="M182.3,25c0,0.3-0.1,0.5-0.2,0.8l-14.8,32.6c-0.3,0.7-0.7,1.1-1.3,1.1c-0.3,0-0.6-0.1-0.8-0.2
		c-0.7-0.3-1.1-0.7-1.1-1.4c0-0.3,0.1-0.5,0.2-0.8l4.5-10v0l-10.2-21.1c-0.1-0.2-0.2-0.5-0.2-0.8c0-0.6,0.3-1.1,1-1.4
		c0.2-0.1,0.5-0.2,0.8-0.2c0.6,0,1.1,0.3,1.4,1l8.9,18.8l8.5-18.8c0.3-0.7,0.8-1,1.4-1c0.3,0,0.5,0.1,0.8,0.2
		C182,23.9,182.3,24.4,182.3,25z"/>
	<path class="st2" d="M206.1,47.1c0,0.5-0.2,0.9-0.6,1.2c-0.4,0.3-0.7,0.4-1.1,0.4c-0.5,0-0.9-0.2-1.2-0.6l-9.4-11.6l-3.4,3.1v7.2
		c0,0.5-0.2,0.9-0.5,1.3s-0.7,0.5-1.3,0.5s-0.9-0.2-1.3-0.5s-0.5-0.7-0.5-1.3V14.6c0-0.5,0.2-0.9,0.5-1.3c0.3-0.3,0.7-0.5,1.3-0.5
		s0.9,0.2,1.3,0.5c0.3,0.3,0.5,0.7,0.5,1.3v20.8l12.9-11.7c0.3-0.3,0.7-0.5,1.1-0.5c0.5,0,0.8,0.2,1.1,0.5c0.3,0.4,0.5,0.8,0.5,1.1
		c0,0.4-0.2,0.8-0.6,1.1l-9.1,8.3l9.5,11.7C205.9,46.3,206.1,46.7,206.1,47.1z"/>
	<path class="st2" d="M213.6,18c-0.5-0.5-0.7-1.1-0.7-1.8c0-0.7,0.2-1.3,0.7-1.8c0.5-0.5,1.1-0.7,1.8-0.7c0.7,0,1.3,0.2,1.7,0.7
		c0.5,0.5,0.7,1.1,0.7,1.8c0,0.7-0.2,1.3-0.7,1.8c-0.5,0.5-1.1,0.7-1.8,0.7S214.1,18.5,213.6,18z M214.2,48
		c-0.3-0.3-0.5-0.8-0.5-1.3V25.3c0-0.5,0.2-0.9,0.5-1.3c0.3-0.3,0.8-0.5,1.3-0.5s0.9,0.2,1.3,0.5c0.3,0.3,0.5,0.8,0.5,1.3v21.5
		c0,0.5-0.2,0.9-0.5,1.3c-0.3,0.3-0.7,0.5-1.3,0.5S214.5,48.4,214.2,48z"/>
	<path class="st2" d="M231,47.1c-1.9-1.1-3.5-2.6-4.6-4.6s-1.6-4.1-1.6-6.5c0-2.4,0.5-4.6,1.6-6.5c1.1-2,2.6-3.5,4.6-4.6
		c1.9-1.1,4.1-1.6,6.5-1.6s4.6,0.5,6.5,1.6s3.4,2.6,4.6,4.6c1.1,2,1.7,4.1,1.7,6.5c0,2.4-0.5,4.6-1.6,6.5c-1.1,1.9-2.6,3.5-4.5,4.6
		c-1.9,1.1-4.1,1.6-6.5,1.6S232.9,48.2,231,47.1z M242.3,44.3c1.4-0.8,2.5-2,3.3-3.4s1.2-3.1,1.2-4.9c0-1.8-0.4-3.5-1.2-4.9
		c-0.8-1.4-1.9-2.6-3.3-3.4s-3-1.2-4.8-1.2c-1.7,0-3.3,0.4-4.7,1.2s-2.5,2-3.3,3.4c-0.8,1.4-1.2,3.1-1.2,4.9c0,1.8,0.4,3.4,1.2,4.9
		c0.8,1.4,1.9,2.6,3.3,3.4s3,1.2,4.7,1.2C239.3,45.6,240.9,45.2,242.3,44.3z"/>
	<path class="st2" d="M260.4,47.8c-1.7-0.6-3.1-1.5-4.2-2.7c-0.3-0.4-0.5-0.7-0.5-1.1c0-0.5,0.2-1,0.7-1.4c0.4-0.3,0.7-0.4,1.1-0.4
		c0.5,0,1,0.2,1.3,0.6c0.7,0.9,1.7,1.5,2.9,2s2.5,0.7,4,0.7c2.1,0,3.7-0.4,4.8-1.1c1.1-0.7,1.6-1.7,1.6-2.9c0-1.1-0.5-2-1.6-2.7
		c-1.1-0.7-2.8-1.3-5.1-1.6c-3-0.5-5.2-1.3-6.7-2.5c-1.5-1.2-2.2-2.7-2.2-4.4c0-2.2,0.9-3.9,2.6-5.2c1.7-1.2,3.9-1.8,6.5-1.8
		c2,0,3.8,0.3,5.3,1c1.5,0.7,2.7,1.6,3.6,2.9c0.2,0.4,0.4,0.7,0.4,1.1c0,0.5-0.2,0.9-0.7,1.2c-0.2,0.2-0.5,0.2-0.9,0.2
		c-0.6,0-1.2-0.2-1.6-0.7c-1.5-1.7-3.5-2.6-6.1-2.6c-1.7,0-3,0.3-4,1c-1,0.7-1.5,1.5-1.5,2.6c0,1.1,0.5,2,1.4,2.6
		c0.9,0.7,2.6,1.2,5,1.6c3.3,0.5,5.6,1.4,7,2.7c1.4,1.2,2.1,2.8,2.1,4.6c0,1.4-0.4,2.7-1.3,3.8c-0.8,1.1-2,2-3.5,2.6
		c-1.5,0.6-3.2,0.9-5.1,0.9S262.1,48.4,260.4,47.8z"/>
	<path class="st2" d="M301.1,47.1c0,0.5-0.2,0.9-0.6,1.2c-0.4,0.3-0.7,0.4-1.1,0.4c-0.5,0-0.9-0.2-1.2-0.6l-9.4-11.6l-3.4,3.1v7.2
		c0,0.5-0.2,0.9-0.5,1.3c-0.3,0.3-0.7,0.5-1.3,0.5s-0.9-0.2-1.3-0.5c-0.3-0.3-0.5-0.7-0.5-1.3V14.6c0-0.5,0.2-0.9,0.5-1.3
		c0.3-0.3,0.7-0.5,1.3-0.5s0.9,0.2,1.3,0.5c0.3,0.3,0.5,0.7,0.5,1.3v20.8l12.9-11.7c0.3-0.3,0.7-0.5,1.1-0.5c0.5,0,0.8,0.2,1.1,0.5
		c0.3,0.4,0.5,0.8,0.5,1.1c0,0.4-0.2,0.8-0.6,1.1l-9.1,8.3l9.5,11.7C300.9,46.3,301.1,46.7,301.1,47.1z"/>
</g>
<g>
	<path class="st0" d="M37.5,46.9h-20c-5.5,0-10-4.5-10-10V36c0-5.5,4.5-10,10-10h20c5.5,0,10,4.5,10,10v0.8
		C47.5,42.4,43,46.9,37.5,46.9z M17.5,28.9c-4,0-7.2,3.2-7.2,7.2v0.8c0,4,3.2,7.2,7.2,7.2h20c4,0,7.2-3.2,7.2-7.2V36
		c0-4-3.2-7.2-7.2-7.2H17.5z"/>
</g>
<g>
	<path class="st0" d="M40.7,36.7c-0.1,1.1-1.1,1.7-1.4,1.3c-2-2.4-5.3,1.9-6.4-1.1c-0.6-1.7,2-2.6,3.8-2.7C38.4,34,40,35,40.7,36.7z
		"/>
</g>
<g>
	<path class="st0" d="M13.8,36.7c0.1,1.1,1.1,1.7,1.4,1.3c2-2.4,5.3,1.9,6.4-1.1c0.6-1.7-2-2.6-3.8-2.7C16.1,34,14.4,35,13.8,36.7z"
		/>
</g>
</svg>
